<svg width="0" height="0" class="hidden" xmlns="http://www.w3.org/2000/svg">
  <symbol   viewBox="0 0 24 24" id="bag">
    <path d="M5.25468 10.5659C5.13958 9.11201 6.2884 7.86865 7.74689 7.86865H16.2531C17.7116 7.86865 18.8604 9.11201 18.7453 10.566L18.2203 17.1975C18.1174 18.4977 17.0323 19.5002 15.7281 19.5002H8.27189C6.96769 19.5002 5.88261 18.4977 5.77968 17.1975L5.25468 10.5659Z" ></path>
    <path d="M7.99999 12.5C7.99999 12.5 7.78329 4 12 4C16.2167 4 16 12.5 16 12.5" ></path>
  </symbol>
  <symbol   viewBox="0 0 20 20" id="clock">
    <circle cx="10" cy="10" r="7" fill="white" ></circle>
    <path d="M9.55453 5.5L9.55453 10.7061L13.5 13" ></path>
  </symbol>
  <symbol   viewBox="0 0 20 20" id="Closes">
    <circle cx="10" cy="10" r="7" ></circle>
    <path d="M6 8C6.24928 8 8.75787 6.5 8.75787 6.5H10.0043H11.2507C11.2507 6.5 13.7507 8 14 8" ></path>
    <path d="M6.01577 7.39283L6.01576 9.17806L7.76075 9.4756L7.76075 13.9386" ></path>
    <path d="M13.9842 7.39283L13.9842 9.17806L12.2393 9.4756L12.2478 13.9386" ></path>
    <line x1="7.51145" y1="13.4385" x2="12.4971" y2="13.4385" ></line>
    <path d="M8.50859 6.5C8.50859 6.5 9.00716 8.28522 10.0043 8.28522C11.0014 8.28522 11.5 6.5 11.5 6.5" ></path>
  </symbol>
  <symbol   viewBox="0 0 24 24" id="favorite">
     <path d="M11.9 7.0948C10.6998 1.47892 1.40881 5.90389 5.76037 11.6018C10.1119 17.2996 12.4 19.4908 12.4 19.4908" />
    <path d="M11.8941 7.0948C13.0944 1.47892 22.7304 5.90389 18.3789 11.6018C14.0273 17.2996 11.7 19.5 11.7 19.5" />
    <path d="M11.391 6.70752L12.4043 6.70757L12.3834 7.24079H11.391V6.70752Z" />
  </symbol>
  <symbol  viewBox="0 0 24 24" id="pay">
    <circle cx="12.4595" cy="8.18919" r="3.68919" ></circle>
    <path d="M4.5 19.3379H19.5" ></path>
    <path d="M4.5 19.84C4.5 16.4347 8.84699 13.9134 12.2143 14.0023C15.4328 14.0872 19.5 16.4347 19.5 19.84" />
  </symbol>
   <symbol  viewBox="0 0 24 24" id="person">
    <circle cx="12.4595" cy="8.18919" r="3.68919"></circle>
    <path d="M4.5 19.3379H19.5" />
    <path d="M4.5 19.84C4.5 16.4347 8.84699 13.9134 12.2143 14.0023C15.4328 14.0872 19.5 16.4347 19.5 19.84" />
  </symbol>
    <symbol viewBox="0 0 24 24" id="menu">
    <line x1="3" y1="5.5" x2="21" y2="5.5" ></line>
    <line x1="3" y1="17.5" x2="21" y2="17.5"></line>
    <line x1="3" y1="11.5" x2="21" y2="11.5"></line>
  </symbol>
  >
  <symbol  viewBox="0 0 24 24" id="arrow-right">
    <path d="M8 5L16 12L8 18.5" />
  </symbol>
    <symbol viewBox="0 0 24 24" id="fullScreen">
    <rect x="4.5" y="6.5" width="13" height="13" rx="1.5" ></rect>
    <path d="M6.33784 6.63126L6.33784 6.49958C6.33784 5.39501 7.23327 4.49958 8.33784 4.49958L17.5 4.49959C18.6045 4.49959 19.5 5.39502 19.5 6.49959L19.5 15.9382C19.5 16.9853 18.5159 17.7537 17.5 17.4997V17.4997" />
  </symbol>

</svg>